<?xml version="1.0" encoding="utf-8"?>
<!-- Generator: Adobe Illustrator 23.0.0, SVG Export Plug-In . SVG Version: 6.00 Build 0)  -->
<svg version="1.1" id="Layer_1" xmlns="http://www.w3.org/2000/svg" xmlns:xlink="http://www.w3.org/1999/xlink" x="0px" y="0px"
	 viewBox="0 0 2000 2000" style="enable-background:new 0 0 2000 2000;" xml:space="preserve">
<style type="text/css">
	.st0{fill:#FFFFFF;}
</style>
<path class="st0" d="M1514.51,2000H485.49C218.47,2000,0,1781.53,0,1514.51V485.49C0,218.47,218.47,0,485.49,0h1029.01
	C1781.53,0,2000,218.47,2000,485.49v1029.01C2000,1781.53,1781.53,2000,1514.51,2000z"/>
<path d="M999.69,22C679,22,418.11,282.88,418.11,603.58v1254.98h91.83v30.61c0,24.85,9.67,47.93,26.72,64.49
	c17.17,17.66,40.25,27.33,65.11,27.33c50.63,0,91.83-41.2,91.83-91.83v-30.61h612.19v30.61c0,24.85,9.67,47.93,26.72,64.49
	c17.17,17.66,40.25,27.33,65.11,27.33c50.63,0,91.83-41.2,91.83-91.83v-30.61h91.83V603.58c0-155.07-60.45-301.14-170.28-411.33
	C1300.83,82.45,1154.76,22,999.69,22z M509.94,1797.34h-30.61V848.45h91.83v948.89h-30.61H509.94z M632.38,1889.17
	c0,16.9-13.71,30.61-30.61,30.61c-8.17,0-15.73-3.15-21.82-9.4c-5.63-5.48-8.78-13.04-8.78-21.21v-30.61h61.22V1889.17z
	 M920.54,1185.16l79.16-79.16l79.16,79.16l-79.16,79.16L920.54,1185.16z M956.41,1307.59l-63.85,63.85l-79.16-79.16l63.85-63.85
	L956.41,1307.59z M1122.13,1228.44l63.85,63.85l-79.16,79.16l-63.85-63.85L1122.13,1228.44z M1042.97,1062.72l63.85-63.85
	l79.16,79.16l-63.85,63.85L1042.97,1062.72z M999.69,1019.44l-48.55-48.55h97.09L999.69,1019.44z M956.41,1062.72l-79.16,79.16
	l-63.85-63.85l79.16-79.16L956.41,1062.72z M770.12,1034.74l-15.3-15.3v-48.55h79.16L770.12,1034.74z M770.12,1121.31l63.85,63.85
	l-63.85,63.85l-15.3-15.3v-97.09L770.12,1121.31z M755.37,1350.32l14.75-14.75l79.16,79.16l-55.49,55.53
	C770.76,1434.68,757.48,1393.39,755.37,1350.32z M912.12,1566.15c-29.23-11.11-55.89-27.49-78.79-48.91l59.26-59.26l63.82,63.88
	L912.12,1566.15z M935.84,1414.73l63.85-63.85l63.85,63.85l-63.85,63.85L935.84,1414.73z M1087.26,1566.15l-44.29-44.29l63.85-63.85
	l59.26,59.26C1143.25,1538.6,1116.56,1555.04,1087.26,1566.15z M1205.63,1470.22l-55.53-55.49l79.16-79.16l14.75,14.75
	C1241.9,1393.33,1228.62,1434.56,1205.63,1470.22z M1244.57,1233.7l-15.3,15.3l-63.85-63.85l63.85-63.85l15.3,15.3V1233.7z
	 M1244.57,1019.44l-15.3,15.3l-63.85-63.85h79.16V1019.44z M1428.22,1889.17c0,16.9-13.71,30.61-30.61,30.61
	c-8.17,0-15.73-3.15-21.82-9.4c-5.63-5.48-8.78-13.04-8.78-21.21v-30.61h61.22V1889.17z M1520.05,1797.34h-30.61h-30.61h-30.61
	V848.45h91.83V1797.34z M1520.05,787.23H479.33V634.19h1040.72V787.23z M849.77,572.97c14.2-69.76,76.03-122.44,149.92-122.44
	s135.75,52.68,149.92,122.44h-63.76c-12.67-35.54-46.34-61.22-86.17-61.22s-73.49,25.68-86.17,61.22H849.77z M1426.66,572.97
	c-15.76-222.01-201.01-397.92-426.97-397.92S588.49,350.96,572.72,572.97h-91.83C496.84,300.3,723.11,83.22,999.69,83.22
	c138.75,0,269.48,54.12,367.99,152.31c90.97,91.25,143.5,210.19,150.87,337.44H1426.66z"/>
<rect x="571.16" y="664.8" width="91.83" height="91.83"/>
<rect x="724.21" y="664.8" width="91.83" height="91.83"/>
<rect x="877.25" y="664.8" width="91.83" height="91.83"/>
<rect x="1030.3" y="664.8" width="91.83" height="91.83"/>
<rect x="1183.35" y="664.8" width="91.83" height="91.83"/>
<rect x="1336.39" y="664.8" width="91.83" height="91.83"/>
</svg>
