<svg xmlns="http://www.w3.org/2000/svg" xmlns:xlink="http://www.w3.org/1999/xlink" version="1.1" x="0px" y="0px" viewBox="0 0 100 125" enable-background="new 0 0 100 100" xml:space="preserve"><path d="M50,18c-10.477,0-19,8.523-19,19v41h3v1c0,0.812,0.316,1.566,0.873,2.107C35.434,81.684,36.188,82,37,82  c1.654,0,3-1.346,3-3v-1h20v1c0,0.812,0.316,1.566,0.873,2.107C61.434,81.684,62.188,82,63,82c1.654,0,3-1.346,3-3v-1h3V37  c0-5.066-1.975-9.838-5.563-13.438C59.838,19.975,55.066,18,50,18z M34,76h-1V45h3v31h-1H34z M38,79c0,0.552-0.448,1-1,1  c-0.267,0-0.514-0.103-0.713-0.307C36.103,79.514,36,79.267,36,79v-1h2V79z M47.414,56L50,53.414L52.586,56L50,58.586L47.414,56z   M48.586,60L46.5,62.086L43.914,59.5L46,57.414L48.586,60z M54,57.414l2.086,2.086L53.5,62.086L51.414,60L54,57.414z M51.414,52  l2.086-2.086l2.586,2.586L54,54.586L51.414,52z M50,50.586L48.414,49h3.172L50,50.586z M48.586,52L46,54.586L43.914,52.5  l2.586-2.586L48.586,52z M42.5,51.086l-0.5-0.5V49h2.586L42.5,51.086z M42.5,53.914L44.586,56L42.5,58.086l-0.5-0.5v-3.172  L42.5,53.914z M42.018,61.396l0.482-0.482l2.586,2.586l-1.813,1.814C42.521,64.152,42.087,62.803,42.018,61.396z M47.139,68.447  c-0.955-0.363-1.826-0.898-2.574-1.598l1.936-1.936L48.586,67L47.139,68.447z M47.914,63.5L50,61.414l2.086,2.086L50,65.586  L47.914,63.5z M52.861,68.447L51.414,67l2.086-2.086l1.936,1.936C54.69,67.547,53.818,68.084,52.861,68.447z M56.728,65.313  L54.914,63.5l2.586-2.586l0.482,0.482C57.913,62.801,57.479,64.148,56.728,65.313z M58,57.586l-0.5,0.5L55.414,56l2.086-2.086  l0.5,0.5V57.586z M58,50.586l-0.5,0.5L55.414,49H58V50.586z M64,79c0,0.552-0.448,1-1,1c-0.267,0-0.514-0.103-0.713-0.307  C62.103,79.514,62,79.267,62,79v-1h2V79z M67,76h-1h-1h-1V45h3V76z M67,43H33v-5h34V43z M45.102,36c0.464-2.279,2.484-4,4.898-4  s4.435,1.721,4.898,4h-2.083c-0.414-1.161-1.514-2-2.815-2s-2.401,0.839-2.815,2H45.102z M63.949,36C63.434,28.747,57.382,23,50,23  s-13.434,5.747-13.949,13h-3C33.572,27.092,40.964,20,50,20c4.533,0,8.804,1.768,12.022,4.976c2.972,2.981,4.688,6.867,4.929,11.024  H63.949z"/><rect x="36" y="39" width="3" height="3"/><rect x="41" y="39" width="3" height="3"/><rect x="46" y="39" width="3" height="3"/><rect x="51" y="39" width="3" height="3"/><rect x="56" y="39" width="3" height="3"/><rect x="61" y="39" width="3" height="3"/><text x="0" y="115" fill="#000000" font-size="5px" font-weight="bold" font-family="'Helvetica Neue', Helvetica, Arial-Unicode, Arial, Sans-serif">Created by André Luiz Gollo</text><text x="0" y="120" fill="#000000" font-size="5px" font-weight="bold" font-family="'Helvetica Neue', Helvetica, Arial-Unicode, Arial, Sans-serif">from the Noun Project</text></svg>