<?xml version="1.0" encoding="utf-8"?>
<!-- Generator: Adobe Illustrator 23.0.0, SVG Export Plug-In . SVG Version: 6.00 Build 0)  -->
<svg version="1.1" id="Layer_1" xmlns="http://www.w3.org/2000/svg" xmlns:xlink="http://www.w3.org/1999/xlink" x="0px" y="0px"
	 viewBox="0 0 1920 1080" style="enable-background:new 0 0 1920 1080;" xml:space="preserve">
<style type="text/css">
	.st0{opacity:0.29;}
	.st1{fill:#545454;}
	.st2{opacity:0.29;fill:#545454;}
	.st3{fill:url(#SVGID_1_);}
</style>
<g class="st0">
	<rect y="4" class="st1" width="1920" height="5"/>
</g>
<g class="st0">
	<rect y="14" class="st1" width="1920" height="5"/>
</g>
<g class="st0">
	<rect y="24" class="st1" width="1920" height="5"/>
</g>
<g class="st0">
	<rect y="34" class="st1" width="1920" height="5"/>
</g>
<g class="st0">
	<rect y="44" class="st1" width="1920" height="5"/>
</g>
<g class="st0">
	<rect y="54" class="st1" width="1920" height="5"/>
</g>
<g class="st0">
	<rect y="64" class="st1" width="1920" height="5"/>
</g>
<g class="st0">
	<rect y="74" class="st1" width="1920" height="5"/>
</g>
<g class="st0">
	<rect y="84" class="st1" width="1920" height="5"/>
</g>
<g class="st0">
	<rect y="94" class="st1" width="1920" height="5"/>
</g>
<g class="st0">
	<rect y="104" class="st1" width="1920" height="5"/>
</g>
<g class="st0">
	<rect y="114" class="st1" width="1920" height="5"/>
</g>
<g class="st0">
	<rect y="124" class="st1" width="1920" height="5"/>
</g>
<g class="st0">
	<rect y="134" class="st1" width="1920" height="5"/>
</g>
<g class="st0">
	<rect y="144" class="st1" width="1920" height="5"/>
</g>
<g class="st0">
	<rect y="154" class="st1" width="1920" height="5"/>
</g>
<g class="st0">
	<rect y="164" class="st1" width="1920" height="5"/>
</g>
<g class="st0">
	<rect y="174" class="st1" width="1920" height="5"/>
</g>
<g class="st0">
	<rect y="184" class="st1" width="1920" height="5"/>
</g>
<g class="st0">
	<rect y="194" class="st1" width="1920" height="5"/>
</g>
<g class="st0">
	<rect y="204" class="st1" width="1920" height="5"/>
</g>
<g class="st0">
	<rect y="214" class="st1" width="1920" height="5"/>
</g>
<g class="st0">
	<rect y="224" class="st1" width="1920" height="5"/>
</g>
<g class="st0">
	<rect y="234" class="st1" width="1920" height="5"/>
</g>
<g class="st0">
	<rect y="244" class="st1" width="1920" height="5"/>
</g>
<g class="st0">
	<rect y="254" class="st1" width="1920" height="5"/>
</g>
<g class="st0">
	<rect y="264" class="st1" width="1920" height="5"/>
</g>
<g class="st0">
	<rect y="274" class="st1" width="1920" height="5"/>
</g>
<g class="st0">
	<rect y="284" class="st1" width="1920" height="5"/>
</g>
<g class="st0">
	<rect y="294" class="st1" width="1920" height="5"/>
</g>
<g class="st0">
	<rect y="304" class="st1" width="1920" height="5"/>
</g>
<g class="st0">
	<rect y="314" class="st1" width="1920" height="5"/>
</g>
<g class="st0">
	<rect y="324" class="st1" width="1920" height="5"/>
</g>
<g class="st0">
	<rect y="334" class="st1" width="1920" height="5"/>
</g>
<g class="st0">
	<rect y="344" class="st1" width="1920" height="5"/>
</g>
<g class="st0">
	<rect y="354" class="st1" width="1920" height="5"/>
</g>
<g class="st0">
	<rect y="364" class="st1" width="1920" height="5"/>
</g>
<g class="st0">
	<rect y="374" class="st1" width="1920" height="5"/>
</g>
<g class="st0">
	<rect y="384" class="st1" width="1920" height="5"/>
</g>
<g class="st0">
	<rect y="394" class="st1" width="1920" height="5"/>
</g>
<g class="st0">
	<rect y="404" class="st1" width="1920" height="5"/>
</g>
<g class="st0">
	<rect y="414" class="st1" width="1920" height="5"/>
</g>
<g class="st0">
	<rect y="424" class="st1" width="1920" height="5"/>
</g>
<g class="st0">
	<rect y="434" class="st1" width="1920" height="5"/>
</g>
<g class="st0">
	<rect y="444" class="st1" width="1920" height="5"/>
</g>
<g class="st0">
	<rect y="454" class="st1" width="1920" height="5"/>
</g>
<g class="st0">
	<rect y="464" class="st1" width="1920" height="5"/>
</g>
<g class="st0">
	<rect y="474" class="st1" width="1920" height="5"/>
</g>
<g class="st0">
	<rect y="484" class="st1" width="1920" height="5"/>
</g>
<g class="st0">
	<rect y="494" class="st1" width="1920" height="5"/>
</g>
<g class="st0">
	<rect y="504" class="st1" width="1920" height="5"/>
</g>
<g class="st0">
	<rect y="514" class="st1" width="1920" height="5"/>
</g>
<g class="st0">
	<rect y="524" class="st1" width="1920" height="5"/>
</g>
<g class="st0">
	<rect y="534" class="st1" width="1920" height="5"/>
</g>
<g class="st0">
	<rect y="544" class="st1" width="1920" height="5"/>
</g>
<g class="st0">
	<rect y="554" class="st1" width="1920" height="5"/>
</g>
<g class="st0">
	<rect y="564" class="st1" width="1920" height="5"/>
</g>
<g class="st0">
	<rect y="574" class="st1" width="1920" height="5"/>
</g>
<g class="st0">
	<rect y="584" class="st1" width="1920" height="5"/>
</g>
<g class="st0">
	<rect y="594" class="st1" width="1920" height="5"/>
</g>
<g class="st0">
	<rect y="604" class="st1" width="1920" height="5"/>
</g>
<g class="st0">
	<rect y="614" class="st1" width="1920" height="5"/>
</g>
<g class="st0">
	<rect y="624" class="st1" width="1920" height="5"/>
</g>
<g class="st0">
	<rect y="634" class="st1" width="1920" height="5"/>
</g>
<g class="st0">
	<rect y="644" class="st1" width="1920" height="5"/>
</g>
<g class="st0">
	<rect y="654" class="st1" width="1920" height="5"/>
</g>
<g class="st0">
	<rect y="664" class="st1" width="1920" height="5"/>
</g>
<g class="st0">
	<rect y="674" class="st1" width="1920" height="5"/>
</g>
<g class="st0">
	<rect y="684" class="st1" width="1920" height="5"/>
</g>
<g class="st0">
	<rect y="694" class="st1" width="1920" height="5"/>
</g>
<g class="st0">
	<rect y="704" class="st1" width="1920" height="5"/>
</g>
<g class="st0">
	<rect y="714" class="st1" width="1920" height="5"/>
</g>
<g class="st0">
	<rect y="724" class="st1" width="1920" height="5"/>
</g>
<g class="st0">
	<rect y="734" class="st1" width="1920" height="5"/>
</g>
<g class="st0">
	<rect y="744" class="st1" width="1920" height="5"/>
</g>
<g class="st0">
	<rect y="754" class="st1" width="1920" height="5"/>
</g>
<g class="st0">
	<rect y="764" class="st1" width="1920" height="5"/>
</g>
<g class="st0">
	<rect y="774" class="st1" width="1920" height="5"/>
</g>
<g class="st0">
	<rect y="784" class="st1" width="1920" height="5"/>
</g>
<g class="st0">
	<rect y="794" class="st1" width="1920" height="5"/>
</g>
<g class="st0">
	<rect y="804" class="st1" width="1920" height="5"/>
</g>
<g class="st0">
	<rect y="814" class="st1" width="1920" height="5"/>
</g>
<g class="st0">
	<rect y="824" class="st1" width="1920" height="5"/>
</g>
<g class="st0">
	<rect y="834" class="st1" width="1920" height="5"/>
</g>
<g class="st0">
	<rect y="844" class="st1" width="1920" height="5"/>
</g>
<g class="st0">
	<rect y="854" class="st1" width="1920" height="5"/>
</g>
<g class="st0">
	<rect y="864" class="st1" width="1920" height="5"/>
</g>
<g class="st0">
	<rect y="874" class="st1" width="1920" height="5"/>
</g>
<g class="st0">
	<rect y="884" class="st1" width="1920" height="5"/>
</g>
<g class="st0">
	<rect y="894" class="st1" width="1920" height="5"/>
</g>
<g class="st0">
	<rect y="904" class="st1" width="1920" height="5"/>
</g>
<g class="st0">
	<rect y="914" class="st1" width="1920" height="5"/>
</g>
<g class="st0">
	<rect y="924" class="st1" width="1920" height="5"/>
</g>
<g class="st0">
	<rect y="934" class="st1" width="1920" height="5"/>
</g>
<g class="st0">
	<rect y="944" class="st1" width="1920" height="5"/>
</g>
<g class="st0">
	<rect y="954" class="st1" width="1920" height="5"/>
</g>
<g class="st0">
	<rect y="964" class="st1" width="1920" height="5"/>
</g>
<g class="st0">
	<rect y="974" class="st1" width="1920" height="5"/>
</g>
<g class="st0">
	<rect y="984" class="st1" width="1920" height="5"/>
</g>
<g class="st0">
	<rect y="994" class="st1" width="1920" height="5"/>
</g>
<g class="st0">
	<rect y="1004" class="st1" width="1920" height="5"/>
</g>
<g class="st0">
	<rect y="1014" class="st1" width="1920" height="5"/>
</g>
<g class="st0">
	<rect y="1024" class="st1" width="1920" height="5"/>
</g>
<g class="st0">
	<rect y="1034" class="st1" width="1920" height="5"/>
</g>
<g class="st0">
	<rect y="1044" class="st1" width="1920" height="5"/>
</g>
<g class="st0">
	<rect y="1054" class="st1" width="1920" height="5"/>
</g>
<g class="st0">
	<rect y="1064" class="st1" width="1920" height="5"/>
</g>
<g class="st0">
	<rect y="1074" class="st1" width="1920" height="5"/>
</g>
<path class="st2" d="M1077.69,4H842.31C880.88,1.36,920.16,0,960,0S1039.12,1.36,1077.69,4z"/>
<radialGradient id="SVGID_1_" cx="960" cy="537" r="777.8075" gradientUnits="userSpaceOnUse">
	<stop  offset="0" style="stop-color:#FFFFFF;stop-opacity:0"/>
	<stop  offset="1" style="stop-color:#000000;stop-opacity:0.7"/>
</radialGradient>
<rect class="st3" width="1920" height="1074"/>
</svg>
